<svg width="1200" height="630" viewBox="0 0 1200 630" fill="none" xmlns="http://www.w3.org/2000/svg">
  <defs>
    <linearGradient id="bg" x1="120" y1="80" x2="1080" y2="560" gradientUnits="userSpaceOnUse">
      <stop stop-color="#081C2A"/>
      <stop offset="1" stop-color="#123D4A"/>
    </linearGradient>
    <linearGradient id="accent" x1="200" y1="160" x2="760" y2="520" gradientUnits="userSpaceOnUse">
      <stop stop-color="#2FE3C8"/>
      <stop offset="1" stop-color="#35A7FF"/>
    </linearGradient>
    <filter id="glow" x="-40%" y="-40%" width="180%" height="180%">
      <feGaussianBlur stdDeviation="10" result="blur"/>
      <feMerge>
        <feMergeNode in="blur"/>
        <feMergeNode in="SourceGraphic"/>
      </feMerge>
    </filter>
  </defs>
  <rect width="1200" height="630" rx="32" fill="url(#bg)"/>
  <circle cx="1000" cy="120" r="180" fill="#35A7FF" opacity="0.08"/>
  <circle cx="180" cy="540" r="220" fill="#2FE3C8" opacity="0.08"/>

  <g opacity="0.2">
    <path d="M110 120H690" stroke="#7CC8D7" stroke-width="2"/>
    <path d="M110 190H690" stroke="#7CC8D7" stroke-width="2"/>
    <path d="M110 260H690" stroke="#7CC8D7" stroke-width="2"/>
    <path d="M110 330H690" stroke="#7CC8D7" stroke-width="2"/>
    <path d="M110 400H690" stroke="#7CC8D7" stroke-width="2"/>
    <path d="M110 470H690" stroke="#7CC8D7" stroke-width="2"/>
    <path d="M110 120V470" stroke="#7CC8D7" stroke-width="2"/>
    <path d="M180 120V470" stroke="#7CC8D7" stroke-width="2"/>
    <path d="M250 120V470" stroke="#7CC8D7" stroke-width="2"/>
    <path d="M320 120V470" stroke="#7CC8D7" stroke-width="2"/>
    <path d="M390 120V470" stroke="#7CC8D7" stroke-width="2"/>
    <path d="M460 120V470" stroke="#7CC8D7" stroke-width="2"/>
    <path d="M530 120V470" stroke="#7CC8D7" stroke-width="2"/>
    <path d="M600 120V470" stroke="#7CC8D7" stroke-width="2"/>
    <path d="M670 120V470" stroke="#7CC8D7" stroke-width="2"/>
  </g>

  <g>
    <rect x="182" y="192" width="66" height="66" rx="14" fill="#1A2E3B"/>
    <rect x="252" y="192" width="66" height="66" rx="14" fill="#1A2E3B"/>
    <rect x="322" y="192" width="66" height="66" rx="14" fill="#1A2E3B"/>
    <rect x="392" y="192" width="66" height="66" rx="14" fill="#1A2E3B"/>
    <rect x="462" y="192" width="66" height="66" rx="14" fill="#1A2E3B"/>
    <rect x="532" y="192" width="66" height="66" rx="14" fill="#1A2E3B"/>
    <rect x="252" y="262" width="66" height="66" rx="14" fill="#1A2E3B"/>
    <rect x="322" y="262" width="66" height="66" rx="14" fill="#1A2E3B"/>
    <rect x="392" y="262" width="66" height="66" rx="14" fill="#1A2E3B"/>
    <rect x="462" y="262" width="66" height="66" rx="14" fill="#1A2E3B"/>
    <rect x="532" y="262" width="66" height="66" rx="14" fill="#1A2E3B"/>
    <rect x="322" y="332" width="66" height="66" rx="14" fill="#1A2E3B"/>
    <rect x="392" y="332" width="66" height="66" rx="14" fill="#1A2E3B"/>
    <rect x="462" y="332" width="66" height="66" rx="14" fill="#1A2E3B"/>
    <rect x="532" y="332" width="66" height="66" rx="14" fill="#1A2E3B"/>
    <rect x="392" y="402" width="66" height="66" rx="14" fill="#1A2E3B"/>
    <rect x="462" y="402" width="66" height="66" rx="14" fill="#1A2E3B"/>
    <rect x="532" y="402" width="66" height="66" rx="14" fill="#1A2E3B"/>
  </g>

  <g filter="url(#glow)">
    <rect x="182" y="192" width="66" height="66" rx="14" fill="url(#accent)"/>
    <rect x="252" y="192" width="66" height="66" rx="14" fill="url(#accent)"/>
    <rect x="252" y="262" width="66" height="66" rx="14" fill="url(#accent)"/>
    <rect x="322" y="262" width="66" height="66" rx="14" fill="url(#accent)"/>
    <rect x="392" y="262" width="66" height="66" rx="14" fill="url(#accent)"/>
    <rect x="392" y="332" width="66" height="66" rx="14" fill="url(#accent)"/>
    <rect x="462" y="332" width="66" height="66" rx="14" fill="url(#accent)"/>
    <rect x="462" y="402" width="66" height="66" rx="14" fill="url(#accent)"/>
    <rect x="532" y="402" width="66" height="66" rx="14" fill="#FDBA74"/>
  </g>

  <g stroke="#FDBA74" stroke-width="8" stroke-linecap="round" stroke-linejoin="round" filter="url(#glow)">
    <path d="M215 225L285 225L285 295L355 295L425 295L425 365L495 365L495 435L565 435"/>
  </g>

  <circle cx="215" cy="225" r="18" fill="#FDE68A"/>
  <circle cx="565" cy="435" r="18" fill="#FB7185"/>

  <text x="770" y="220" fill="#E6FBFF" font-size="52" font-family="Segoe UI, Arial, sans-serif" font-weight="700">BFS Flood Fill</text>
  <text x="770" y="285" fill="#8EE7DB" font-size="28" font-family="Segoe UI, Arial, sans-serif">Connected Components + Shortest Path</text>
  <text x="770" y="360" fill="#D7F6FF" font-size="24" font-family="Consolas, monospace">queue.push(start)</text>
  <text x="770" y="398" fill="#D7F6FF" font-size="24" font-family="Consolas, monospace">visit by layers</text>
  <text x="770" y="436" fill="#D7F6FF" font-size="24" font-family="Consolas, monospace">trace shortest route</text>

  <rect x="770" y="470" width="250" height="58" rx="18" fill="#0F2C38" stroke="#2FE3C8" stroke-opacity="0.4"/>
  <text x="804" y="507" fill="#A7FFF2" font-size="24" font-family="Segoe UI, Arial, sans-serif" font-weight="600">Graph Search Notes</text>
</svg>
