<svg width="1200" height="630" viewBox="0 0 1200 630" fill="none" xmlns="http://www.w3.org/2000/svg">
  <defs>
    <linearGradient id="bg3" x1="70" y1="70" x2="1130" y2="560" gradientUnits="userSpaceOnUse">
      <stop stop-color="#171717"/>
      <stop offset="1" stop-color="#3F2B96"/>
    </linearGradient>
    <linearGradient id="mst" x1="180" y1="110" x2="690" y2="470" gradientUnits="userSpaceOnUse">
      <stop stop-color="#FDE68A"/>
      <stop offset="1" stop-color="#F97316"/>
    </linearGradient>
    <linearGradient id="edge" x1="160" y1="150" x2="700" y2="440" gradientUnits="userSpaceOnUse">
      <stop stop-color="#67E8F9"/>
      <stop offset="1" stop-color="#A78BFA"/>
    </linearGradient>
  </defs>
  <rect width="1200" height="630" rx="32" fill="url(#bg3)"/>
  <circle cx="1080" cy="110" r="160" fill="#A78BFA" opacity="0.12"/>
  <circle cx="150" cy="520" r="200" fill="#F97316" opacity="0.08"/>

  <g opacity="0.22">
    <path d="M90 130H700" stroke="#F3F4F6" stroke-width="2"/>
    <path d="M90 500H700" stroke="#F3F4F6" stroke-width="2"/>
    <path d="M90 130V500" stroke="#F3F4F6" stroke-width="2"/>
    <path d="M700 130V500" stroke="#F3F4F6" stroke-width="2"/>
  </g>

  <g stroke="#A78BFA" stroke-opacity="0.45" stroke-width="5" stroke-linecap="round">
    <path d="M170 210L310 150"/>
    <path d="M170 210L300 330"/>
    <path d="M300 330L450 250"/>
    <path d="M300 330L430 430"/>
    <path d="M310 150L450 250"/>
    <path d="M450 250L580 170"/>
    <path d="M450 250L580 340"/>
    <path d="M430 430L580 340"/>
    <path d="M430 430L640 450"/>
    <path d="M580 340L640 450"/>
    <path d="M580 170L580 340"/>
    <path d="M310 150L580 170"/>
  </g>

  <g stroke="url(#mst)" stroke-width="8" stroke-linecap="round">
    <path d="M170 210L310 150"/>
    <path d="M170 210L300 330"/>
    <path d="M300 330L450 250"/>
    <path d="M450 250L580 170"/>
    <path d="M450 250L580 340"/>
    <path d="M430 430L580 340"/>
    <path d="M580 340L640 450"/>
  </g>

  <g fill="#E5E7EB">
    <circle cx="170" cy="210" r="22"/>
    <circle cx="310" cy="150" r="22"/>
    <circle cx="300" cy="330" r="22"/>
    <circle cx="450" cy="250" r="24"/>
    <circle cx="430" cy="430" r="22"/>
    <circle cx="580" cy="170" r="22"/>
    <circle cx="580" cy="340" r="24"/>
    <circle cx="640" cy="450" r="22"/>
  </g>

  <g fill="#111827" font-size="18" font-family="Consolas, monospace" font-weight="700" text-anchor="middle">
    <text x="170" y="216">1</text>
    <text x="310" y="156">2</text>
    <text x="300" y="336">3</text>
    <text x="450" y="256">4</text>
    <text x="430" y="436">5</text>
    <text x="580" y="176">6</text>
    <text x="580" y="346">7</text>
    <text x="640" y="456">8</text>
  </g>

  <g fill="#FDE68A" font-size="20" font-family="Consolas, monospace" font-weight="700">
    <text x="215" y="168">2</text>
    <text x="222" y="298">3</text>
    <text x="366" y="278">1</text>
    <text x="502" y="197">4</text>
    <text x="515" y="306">2</text>
    <text x="488" y="400">5</text>
    <text x="606" y="407">3</text>
  </g>

  <g transform="translate(785 155)">
    <text x="0" y="0" fill="#FFF7ED" font-size="52" font-family="Segoe UI, Arial, sans-serif" font-weight="700">Minimum Spanning Tree</text>
    <text x="0" y="56" fill="#E9D5FF" font-size="28" font-family="Segoe UI, Arial, sans-serif">Kruskal, Prim, DSU and Extended Applications</text>

    <rect x="0" y="115" width="290" height="62" rx="18" fill="#24193F" stroke="#FDE68A" stroke-opacity="0.5"/>
    <text x="28" y="154" fill="#F8FAFC" font-size="24" font-family="Consolas, monospace">sort edges by weight</text>

    <rect x="0" y="197" width="290" height="62" rx="18" fill="#24193F" stroke="#67E8F9" stroke-opacity="0.45"/>
    <text x="28" y="236" fill="#F8FAFC" font-size="24" font-family="Consolas, monospace">union without cycles</text>

    <rect x="0" y="279" width="290" height="62" rx="18" fill="#24193F" stroke="#FB7185" stroke-opacity="0.45"/>
    <text x="28" y="318" fill="#F8FAFC" font-size="24" font-family="Consolas, monospace">pick n - 1 edges</text>
  </g>
</svg>
